<?xml version="1.0" encoding="UTF-8"?>
<svg xmlns="http://www.w3.org/2000/svg" xmlns:xlink="http://www.w3.org/1999/xlink" width="108px" height="108px" viewBox="0 0 108 108" version="1.1">
<g id="surface1">
<path style=" stroke:none;fill-rule:nonzero;fill:rgb(0%,0%,0%);fill-opacity:1;" d="M 39.980469 0.378906 C 40.023438 0.515625 41.046875 3.820312 42.273438 7.71875 L 44.480469 14.808594 L 44.203125 15.144531 C 43.546875 15.957031 42.847656 17.449219 42.621094 18.539062 C 42.5625 18.808594 42.472656 19.515625 42.421875 20.125 C 42.34375 21.09375 42.363281 21.371094 42.570312 22.570312 C 43.40625 27.355469 44.660156 31.015625 46.761719 34.789062 C 47.109375 35.429688 47.378906 35.976562 47.347656 36.003906 C 47.269531 36.078125 47.777344 36.820312 48.78125 38.09375 C 51.222656 41.167969 54.019531 43.613281 56.796875 45.097656 C 59.875 46.734375 62.632812 47.25 65 46.617188 C 71.3125 44.929688 72.070312 35.285156 66.652344 25.75 C 63.1875 19.660156 58.0625 14.960938 53.0625 13.296875 C 51.492188 12.773438 49.390625 11.957031 49.242188 11.820312 C 49.160156 11.746094 47.070312 9.121094 44.601562 5.992188 C 42.121094 2.859375 40.050781 0.253906 40.003906 0.210938 C 39.941406 0.160156 39.933594 0.21875 39.980469 0.378906 Z M 39.980469 0.378906 "/>
<path style=" stroke:none;fill-rule:nonzero;fill:rgb(0%,0%,0%);fill-opacity:1;" d="M 14.457031 9.617188 C 14.484375 9.6875 14.675781 10.183594 14.875 10.714844 C 15.082031 11.246094 16.007812 13.660156 16.945312 16.074219 C 17.871094 18.488281 18.855469 21.027344 19.113281 21.726562 L 19.601562 22.992188 L 19.175781 24.425781 C 18.9375 25.210938 18.648438 26.121094 18.527344 26.453125 C 18.078125 27.707031 17.980469 28.441406 17.980469 30.585938 C 17.980469 32.730469 18.078125 33.539062 18.578125 35.480469 C 19.582031 39.4375 21.664062 43.511719 24.492188 47.082031 C 29.429688 53.332031 36.078125 56.785156 40.660156 55.484375 C 43.335938 54.71875 45 52.683594 45.71875 49.273438 C 45.886719 48.449219 45.886719 45.125 45.707031 44.042969 C 45.429688 42.28125 44.800781 40.078125 44.105469 38.367188 C 43.617188 37.167969 43.335938 36.617188 43.15625 36.5 C 43.078125 36.449219 42.789062 35.96875 42.511719 35.445312 C 41.914062 34.296875 41.265625 33.253906 40.242188 31.792969 C 38.699219 29.597656 37.113281 27.902344 34.597656 25.769531 C 33.121094 24.519531 32.457031 24.023438 31.558594 23.5 C 30.265625 22.746094 28.890625 22.171875 27.726562 21.894531 C 26.878906 21.683594 25.167969 21.472656 24.949219 21.539062 C 24.878906 21.566406 24.429688 21.320312 23.964844 21 L 23.105469 20.417969 L 18.855469 15.042969 C 16.515625 12.082031 14.566406 9.617188 14.503906 9.578125 C 14.4375 9.515625 14.425781 9.535156 14.457031 9.617188 Z M 14.457031 9.617188 "/>
<path style=" stroke:none;fill-rule:nonzero;fill:rgb(0%,0%,0%);fill-opacity:1;" d="M 79.445312 12.84375 C 79.257812 12.882812 79.089844 12.933594 79.070312 12.941406 C 79.058594 12.960938 79.386719 13.398438 79.796875 13.921875 C 81.886719 16.570312 83.539062 20.445312 84.066406 23.921875 C 84.285156 25.304688 84.277344 25.398438 83.996094 25.398438 C 83.429688 25.398438 82.113281 25.894531 81.289062 26.410156 C 78.300781 28.289062 76.210938 32.148438 75.445312 37.210938 C 75.253906 38.507812 75.285156 42.347656 75.496094 43.730469 C 76.621094 50.921875 80.492188 56.152344 85.121094 56.71875 C 90.050781 57.332031 94.390625 52.355469 95.425781 44.914062 C 95.625 43.46875 95.625 40.0625 95.425781 38.617188 C 95.019531 35.691406 94.210938 33.253906 92.878906 30.890625 C 92.308594 29.878906 92.191406 29.597656 92.191406 29.246094 C 92.191406 28.652344 91.941406 27.414062 91.59375 26.242188 C 90.160156 21.449219 86.335938 15.988281 82.832031 13.777344 C 81.65625 13.027344 80.242188 12.640625 79.445312 12.84375 Z M 79.445312 12.84375 "/>
<path style=" stroke:none;fill-rule:nonzero;fill:rgb(0%,0%,0%);fill-opacity:1;" d="M 1.222656 45.132812 C 0.539062 45.496094 0.128906 46.441406 0.03125 47.882812 C -0.238281 52.21875 3.742188 59.820312 8.183594 63.40625 C 9.050781 64.117188 9.167969 64.242188 9.648438 65.09375 C 10.972656 67.449219 12.613281 69.347656 15.222656 71.550781 C 17.769531 73.703125 20.558594 75.414062 23.546875 76.65625 C 29.546875 79.160156 34.90625 79.261719 37.632812 76.933594 C 39.144531 75.640625 39.703125 73.507812 39.125 71.136719 C 38.101562 66.84375 33.878906 62.023438 28.027344 58.453125 C 24.480469 56.296875 20.480469 54.886719 16.824219 54.507812 C 14.277344 54.246094 12.015625 54.667969 10.363281 55.703125 L 9.835938 56.042969 L 9.089844 55.425781 C 7.457031 54.066406 5.59375 52.058594 4.390625 50.355469 C 3.285156 48.785156 1.691406 45.6875 1.691406 45.105469 C 1.691406 44.929688 1.613281 44.9375 1.222656 45.132812 Z M 1.222656 45.132812 "/>
<path style=" stroke:none;fill-rule:nonzero;fill:rgb(0%,0%,0%);fill-opacity:1;" d="M 60.929688 55.832031 C 57.753906 56.023438 54.476562 57.300781 52.199219 59.222656 C 50.625 60.546875 49.640625 61.839844 49.289062 63.035156 C 48.644531 65.253906 48.414062 67.675781 48.574219 70.578125 C 48.8125 74.78125 48.8125 74.757812 48.644531 75.574219 C 48.285156 77.320312 47.25 79.40625 46.035156 80.832031 C 45.707031 81.21875 45.078125 81.792969 44.523438 82.199219 C 42.910156 83.394531 41.195312 85.09375 39.894531 86.78125 C 37.941406 89.328125 37.335938 90.890625 37.183594 93.78125 C 37.027344 96.652344 38 99.46875 40.03125 102.058594 C 41.007812 103.292969 42.960938 104.960938 44.363281 105.746094 C 46.105469 106.726562 48.164062 107.453125 50.226562 107.804688 C 50.953125 107.933594 51.539062 107.957031 53.363281 107.941406 C 57.863281 107.914062 59.195312 107.492188 61.972656 105.207031 C 63.605469 103.867188 64.222656 103.199219 65.609375 101.308594 C 66.1875 100.53125 67.0625 99.425781 67.570312 98.84375 C 68.59375 97.6875 70.40625 96.050781 71.570312 95.226562 C 73.832031 93.632812 76.648438 92.464844 79.746094 91.851562 C 81.957031 91.402344 82.84375 91.335938 86.265625 91.335938 C 89.132812 91.34375 89.679688 91.359375 91.792969 91.582031 C 93.59375 91.765625 94.351562 91.808594 95.097656 91.765625 C 98.292969 91.597656 100.851562 90.542969 103.5 88.308594 C 104.445312 87.503906 104.992188 86.957031 105.480469 86.332031 C 108.976562 81.785156 108.847656 75.980469 105.121094 71.246094 C 104.296875 70.199219 102.335938 68.46875 101.230469 67.804688 C 99.585938 66.824219 97.894531 66.148438 96.074219 65.738281 C 93.992188 65.273438 93.671875 65.265625 91.046875 65.652344 C 88.199219 66.074219 87.210938 66.148438 85.558594 66.058594 C 82.921875 65.914062 80.28125 65.144531 78.152344 63.90625 C 77.695312 63.644531 75.644531 62.125 73.582031 60.53125 C 69.871094 57.644531 69.847656 57.628906 68.753906 57.171875 C 66.960938 56.421875 65.289062 56.015625 63.320312 55.863281 C 62.203125 55.773438 61.875 55.773438 60.929688 55.832031 Z M 60.929688 55.832031 "/>
</g>
</svg>
